<?xml version="1.0" encoding="UTF-8"?>
<svg id="Capa_1" data-name="Capa 1" xmlns="http://www.w3.org/2000/svg" viewBox="0 0 512 170.67">
  <path d="M309.8,117.73h-11.46v-11.71l-2.26,2.93c-13.51,16.84-51.08,15.52-52.91-10.26-.96-13.52,7.28-21.24,19.45-24.76,11.15-3.22,23.07-3.65,34.4-5.89-.12-9.54-3.65-16.06-13.55-17.6-10.69-1.66-22.33,1.65-25.11,13.23l-12-3.59-.22-.47c3.52-13.16,14.76-20.65,28.08-21.49,17.62-1.11,33.42,4.99,35.31,24.36.59,18.39.12,36.83.27,55.24ZM297,79.12c-7.88,1.27-15.91,1.91-23.72,3.59-8.13,1.75-18.38,5.06-17.25,15.37,1.6,14.59,22.81,12.89,31.77,6.06,7.73-5.89,9.18-15.86,9.2-25.02Z"/>
  <path d="M160.8,117.73h-11.46v-11.45c-2.75,3.52-5.63,6.68-9.51,9-15.29,9.14-43.82,5.7-45.4-15.78-2.19-29.77,33.69-27.29,53.82-31.32-.29-7.93-2.59-14.86-10.9-17.14-7.55-2.07-18.53-1.16-23.98,5.06-1.96,2.24-3,4.84-4.13,7.54l-12.13-3.82c3.52-13.25,15.04-20.89,28.38-21.7,18.71-1.14,34.19,5.77,35.31,26.22v53.38ZM148.01,79.12c-8.16,1.37-16.5,1.96-24.57,3.81-6.03,1.38-15.46,4.44-16.21,11.77-1.67,16.45,18.99,17.17,29.4,10.99,9.45-5.6,11.76-16.24,11.38-26.57Z"/>
  <path d="M463.54,38.2c27.52-2.01,42.73,17.82,41.38,43.99-1.23,23.83-17.6,40.04-41.99,37.66-44.53-4.35-44-78.4.61-81.65ZM463.8,50.45c-26.11,2.51-26.55,49.5-4.48,56.23,15.42,4.7,28.06-3.21,31.11-18.72,3.86-19.65-3.4-39.75-26.63-37.52Z"/>
  <path d="M80.04,117.73h-13.06v-42.21c-.8-13.71-6.4-25.72-22-25.16-14.23.51-19.73,11.9-20.39,24.63v42.74s-13.05,0-13.05,0V40.25h11.73v9.58c4.37-5.15,9.81-8.96,16.47-10.57,24.47-5.93,39.58,10.14,40.32,33.59v44.87Z"/>
  <polygon points="182.26 40.25 203.98 101.22 225.84 40.25 238.9 40.25 210.53 117.74 197.45 117.47 169.6 40.25 182.26 40.25"/>
  <path d="M422.28,40.25v11.98l-6-.8c-13.71.28-20.46,10.85-21.2,23.55v42.74s-13.05,0-13.05,0V40.25h11.46v11.98c2.54-3.64,5.44-6.93,9.35-9.16,5.68-3.25,13.06-4.12,19.44-2.82Z"/>
  <path d="M368.44,40.25v11.98l-5.97-.77c-14.87.51-20.56,12-21.23,25.39v40.88s-12.78,0-12.78,0V40.25h11.46v11.98l4.53-5.73c6.46-5.83,15.48-8.03,23.99-6.25Z"/>
</svg>